<svg xmlns="http://www.w3.org/2000/svg" viewBox="0 0 1060 440" width="100%" height="100%" style="background:#0d1117; font-family: -apple-system, BlinkMacSystemFont, 'Segoe UI', Roboto, sans-serif;"><text x="80" y="35" fill="#f0f6fc" font-size="18" font-weight="600">Network Ingress vs TimescaleDB Persistence Rate</text><rect x="740" y="24" width="14" height="14" rx="3" fill="#10b981" /><text x="760" y="36" fill="#8b949e" font-size="12">Network Ingest</text><rect x="880" y="24" width="14" height="14" rx="3" fill="#a855f7" /><text x="900" y="36" fill="#8b949e" font-size="12">DB Persisted (rows/s)</text><line x1="80" y1="365" x2="1020" y2="365" stroke="#21262d" stroke-width="1" stroke-dasharray="4" /><text x="70" y="369" fill="#8b949e" font-size="11" text-anchor="end">0k</text><line x1="80" y1="305" x2="1020" y2="305" stroke="#21262d" stroke-width="1" stroke-dasharray="4" /><text x="70" y="309" fill="#8b949e" font-size="11" text-anchor="end">20k</text><line x1="80" y1="245" x2="1020" y2="245" stroke="#21262d" stroke-width="1" stroke-dasharray="4" /><text x="70" y="249" fill="#8b949e" font-size="11" text-anchor="end">40k</text><line x1="80" y1="185" x2="1020" y2="185" stroke="#21262d" stroke-width="1" stroke-dasharray="4" /><text x="70" y="189" fill="#8b949e" font-size="11" text-anchor="end">60k</text><line x1="80" y1="125" x2="1020" y2="125" stroke="#21262d" stroke-width="1" stroke-dasharray="4" /><text x="70" y="129" fill="#8b949e" font-size="11" text-anchor="end">80k</text><line x1="80" y1="65" x2="1020" y2="65" stroke="#21262d" stroke-width="1" stroke-dasharray="4" /><text x="70" y="69" fill="#8b949e" font-size="11" text-anchor="end">100k</text><line x1="80" y1="365" x2="1020" y2="365" stroke="#30363d" stroke-width="2" /><line x1="80" y1="65" x2="80" y2="365" stroke="#30363d" stroke-width="2" /><rect x="91.5" y="362.0" width="26.6" height="3.0" rx="3" fill="#10b981" opacity="0.8" /><rect x="120.2" y="362.0" width="26.6" height="3.0" rx="3" fill="#a855f7" /><text x="119.2" y="383" fill="#c9d1d9" font-size="11" text-anchor="middle">10u</text><text x="119.2" y="397" fill="#a855f7" font-size="10" text-anchor="middle">1.0k/s</text><rect x="169.9" y="362.0" width="26.6" height="3.0" rx="3" fill="#10b981" opacity="0.8" /><rect x="198.5" y="362.0" width="26.6" height="3.0" rx="3" fill="#a855f7" /><text x="197.5" y="383" fill="#c9d1d9" font-size="11" text-anchor="middle">50@20</text><text x="197.5" y="397" fill="#a855f7" font-size="10" text-anchor="middle">1.0k/s</text><line x1="236.7" y1="65" x2="236.7" y2="365" stroke="#30363d" stroke-width="1" stroke-dasharray="3" /><rect x="248.2" y="350.1" width="26.6" height="14.9" rx="3" fill="#10b981" opacity="0.8" /><rect x="276.8" y="350.1" width="26.6" height="14.9" rx="3" fill="#a855f7" /><text x="275.8" y="383" fill="#c9d1d9" font-size="11" text-anchor="middle">50u</text><text x="275.8" y="397" fill="#a855f7" font-size="10" text-anchor="middle">5.0k/s</text><rect x="326.5" y="350.0" width="26.6" height="15.0" rx="3" fill="#10b981" opacity="0.8" /><rect x="355.2" y="350.0" width="26.6" height="15.0" rx="3" fill="#a855f7" /><text x="354.2" y="383" fill="#c9d1d9" font-size="11" text-anchor="middle">50@100</text><text x="354.2" y="397" fill="#a855f7" font-size="10" text-anchor="middle">5.0k/s</text><line x1="393.3" y1="65" x2="393.3" y2="365" stroke="#30363d" stroke-width="1" stroke-dasharray="3" /><rect x="404.9" y="335.1" width="26.6" height="29.9" rx="3" fill="#10b981" opacity="0.8" /><rect x="433.5" y="335.1" width="26.6" height="29.9" rx="3" fill="#a855f7" /><text x="432.5" y="383" fill="#c9d1d9" font-size="11" text-anchor="middle">100u</text><text x="432.5" y="397" fill="#a855f7" font-size="10" text-anchor="middle">10.0k/s</text><rect x="483.2" y="335.1" width="26.6" height="29.9" rx="3" fill="#10b981" opacity="0.8" /><rect x="511.8" y="335.1" width="26.6" height="29.9" rx="3" fill="#a855f7" /><text x="510.8" y="383" fill="#c9d1d9" font-size="11" text-anchor="middle">50@200</text><text x="510.8" y="397" fill="#a855f7" font-size="10" text-anchor="middle">10.0k/s</text><line x1="550.0" y1="65" x2="550.0" y2="365" stroke="#30363d" stroke-width="1" stroke-dasharray="3" /><rect x="561.5" y="290.2" width="26.6" height="74.8" rx="3" fill="#10b981" opacity="0.8" /><rect x="590.2" y="290.2" width="26.6" height="74.8" rx="3" fill="#a855f7" /><text x="589.2" y="383" fill="#c9d1d9" font-size="11" text-anchor="middle">250u</text><text x="589.2" y="397" fill="#a855f7" font-size="10" text-anchor="middle">24.9k/s</text><rect x="639.9" y="290.7" width="26.6" height="74.3" rx="3" fill="#10b981" opacity="0.8" /><rect x="668.5" y="290.7" width="26.6" height="74.3" rx="3" fill="#a855f7" /><text x="667.5" y="383" fill="#c9d1d9" font-size="11" text-anchor="middle">50@500</text><text x="667.5" y="397" fill="#a855f7" font-size="10" text-anchor="middle">24.8k/s</text><line x1="706.7" y1="65" x2="706.7" y2="365" stroke="#30363d" stroke-width="1" stroke-dasharray="3" /><rect x="718.2" y="216.0" width="26.6" height="149.0" rx="3" fill="#10b981" opacity="0.8" /><rect x="746.8" y="235.0" width="26.6" height="130.0" rx="3" fill="#a855f7" /><text x="745.8" y="383" fill="#c9d1d9" font-size="11" text-anchor="middle">500u</text><text x="745.8" y="397" fill="#a855f7" font-size="10" text-anchor="middle">43.3k/s</text><rect x="796.5" y="234.1" width="26.6" height="130.9" rx="3" fill="#10b981" opacity="0.8" /><rect x="825.2" y="234.1" width="26.6" height="130.9" rx="3" fill="#a855f7" /><text x="824.2" y="383" fill="#c9d1d9" font-size="11" text-anchor="middle">50@1000</text><text x="824.2" y="397" fill="#a855f7" font-size="10" text-anchor="middle">43.6k/s</text><line x1="863.3" y1="65" x2="863.3" y2="365" stroke="#30363d" stroke-width="1" stroke-dasharray="3" /><rect x="874.9" y="73.3" width="26.6" height="291.7" rx="3" fill="#10b981" opacity="0.8" /><rect x="903.5" y="216.8" width="26.6" height="148.2" rx="3" fill="#a855f7" /><text x="902.5" y="383" fill="#c9d1d9" font-size="11" text-anchor="middle">1000u</text><text x="902.5" y="397" fill="#a855f7" font-size="10" text-anchor="middle">49.4k/s</text><rect x="953.2" y="191.7" width="26.6" height="173.3" rx="3" fill="#10b981" opacity="0.8" /><rect x="981.8" y="209.6" width="26.6" height="155.4" rx="3" fill="#a855f7" /><text x="980.8" y="383" fill="#c9d1d9" font-size="11" text-anchor="middle">50@2000</text><text x="980.8" y="397" fill="#a855f7" font-size="10" text-anchor="middle">51.8k/s</text></svg>